<svg xmlns="http://www.w3.org/2000/svg" width="85" height="85" viewBox="0 0 85 85">
  <g id="Group_9885" data-name="Group 9885" transform="translate(-459 -1970)">
    <g id="Ellipse_1327" data-name="Ellipse 1327" transform="translate(459 1970)" fill="#fff" stroke="#2276bd" stroke-linejoin="bevel" stroke-width="2">
      <circle cx="42.5" cy="42.5" r="42.5" stroke="none"/>
      <circle cx="42.5" cy="42.5" r="41.5" fill="none"/>
    </g>
    <path id="satisfaction" d="M44.367,43.01,45.8,46.773a.292.292,0,0,0,.264.192l4.02.2a.3.3,0,0,1,.172.529l-3.137,2.522a.292.292,0,0,0-.1.31l1.056,3.884a.3.3,0,0,1-.45.327l-3.368-2.2a.292.292,0,0,0-.326,0l-3.368,2.2a.3.3,0,0,1-.45-.327l1.056-3.884a.292.292,0,0,0-.1-.31l-3.137-2.522a.3.3,0,0,1,.172-.529l4.02-.2a.292.292,0,0,0,.264-.192L43.81,43.01a.3.3,0,0,1,.557,0ZM63.023,73.973a9.547,9.547,0,1,1-9.547,9.547A9.547,9.547,0,0,1,63.023,73.973ZM61.769,84.362l-2.133-2.133a1.416,1.416,0,0,0-2,2l3.138,3.138a1.416,1.416,0,0,0,2,0c1.891-1.891,3.761-3.8,5.643-5.7a1.413,1.413,0,1,0-2.006-1.992ZM44.089,58.168A7.09,7.09,0,1,1,37,65.258,7.09,7.09,0,0,1,44.089,58.168ZM31.526,86.041H51.869a11.457,11.457,0,0,1,1.646-8.872,14.024,14.024,0,0,0-23.142,7.448,1.175,1.175,0,0,0,1.153,1.424ZM72.11,59.348l-2.544,3.119a.292.292,0,0,0-.034.324l1.84,3.58a.3.3,0,0,1-.372.414l-3.752-1.456a.292.292,0,0,0-.319.068l-2.836,2.857a.3.3,0,0,1-.508-.226l.225-4.019a.292.292,0,0,0-.163-.282l-3.593-1.814a.3.3,0,0,1,.058-.553L64,60.33a.292.292,0,0,0,.218-.242l.615-3.978a.3.3,0,0,1,.544-.116l2.18,3.384a.292.292,0,0,0,.3.133l3.973-.644a.3.3,0,0,1,.278.482ZM60.428,47.462a.3.3,0,0,0-.482-.278l-3.119,2.544a.292.292,0,0,1-.324.034l-3.58-1.84a.3.3,0,0,0-.414.372l1.456,3.752a.292.292,0,0,1-.068.319L51.041,55.2a.3.3,0,0,0,.226.508l4.019-.225a.292.292,0,0,1,.282.163l1.814,3.593a.3.3,0,0,0,.553-.058l1.028-3.892a.292.292,0,0,1,.242-.218l3.978-.615a.3.3,0,0,0,.116-.544l-3.384-2.18a.292.292,0,0,1-.133-.3Zm-44.082,11.4,3.973.644a.292.292,0,0,0,.3-.133l2.18-3.384a.3.3,0,0,1,.544.116l.615,3.978a.292.292,0,0,0,.218.242l3.892,1.028a.3.3,0,0,1,.058.553l-3.593,1.814a.292.292,0,0,0-.163.282l.225,4.019a.3.3,0,0,1-.508.226L21.249,65.4a.292.292,0,0,0-.319-.068l-3.752,1.456a.3.3,0,0,1-.372-.414l1.84-3.58a.292.292,0,0,0-.034-.324l-2.544-3.119A.3.3,0,0,1,16.346,58.866ZM28.232,47.184a.3.3,0,0,0-.482.278l.644,3.973a.292.292,0,0,1-.133.3l-3.384,2.18a.3.3,0,0,0,.116.544l3.978.615a.292.292,0,0,1,.242.218l1.028,3.892a.3.3,0,0,0,.553.058l1.814-3.593a.292.292,0,0,1,.282-.163l4.019.225a.3.3,0,0,0,.226-.508L34.28,52.365a.292.292,0,0,1-.068-.319l1.456-3.752a.3.3,0,0,0-.414-.372l-3.58,1.84a.292.292,0,0,1-.324-.034Z" transform="translate(457 1944.181)" fill="#2276bd" fill-rule="evenodd"/>
  </g>
</svg>
