<svg xmlns="http://www.w3.org/2000/svg" width="85" height="85" viewBox="0 0 85 85">
  <g id="Group_9887" data-name="Group 9887" transform="translate(-459 -1970)">
    <g id="Ellipse_1327" data-name="Ellipse 1327" transform="translate(459 1970)" fill="#fff" stroke="#2276bd" stroke-linejoin="bevel" stroke-width="2">
      <circle cx="42.5" cy="42.5" r="42.5" stroke="none"/>
      <circle cx="42.5" cy="42.5" r="41.5" fill="none"/>
    </g>
    <g id="solid" transform="translate(420.002 1953)">
      <path id="Path_16450" data-name="Path 16450" d="M291.86,274.895A2.9,2.9,0,0,0,288.965,272a2.869,2.869,0,0,0-.965.165v5.457a2.89,2.89,0,0,0,3.86-2.727Z" transform="translate(-203.139 -211.052)" fill="#2276bd"/>
      <path id="Path_16451" data-name="Path 16451" d="M272,330.076a2.909,2.909,0,0,1,1.764,1.765h1.683a2.81,2.81,0,0,1,2.342-2.11v-1.752a4.817,4.817,0,0,1-5.788,0h0Z" transform="translate(-189.069 -260.278)" fill="#2276bd"/>
      <path id="Path_16452" data-name="Path 16452" d="M168.684,121.93a.965.965,0,0,1,.965.965.966.966,0,0,0,.965.965.965.965,0,0,1,.965.965v13.509a.965.965,0,0,1-.965.965.966.966,0,0,0-.965.965.965.965,0,0,1-.965.965h-3.86a.965.965,0,0,1-.965-.965.966.966,0,0,0-.965-.965.965.965,0,0,1-.965-.965V125.525a2.789,2.789,0,0,1-.855-.893L160,122.84v20.318h13.509V120H165.13l.858,1.93Z" transform="translate(-90.578 -77.386)" fill="#2276bd"/>
      <path id="Path_16453" data-name="Path 16453" d="M240,328v7.719h8.379l-.858-1.93h-2.7a.965.965,0,0,1-.965-.965.966.966,0,0,0-.965-.965.965.965,0,0,1-.965-.965V328Z" transform="translate(-160.929 -260.297)" fill="#2276bd"/>
      <path id="Path_16454" data-name="Path 16454" d="M291.86,235.862v-2.1A2.909,2.909,0,0,1,290.1,232H288v2.994a4.794,4.794,0,0,1,3.86.868Z" transform="translate(-203.139 -175.877)" fill="#2276bd"/>
      <path id="Path_16455" data-name="Path 16455" d="M291.86,202.895a.966.966,0,0,0,.965.965.965.965,0,0,1,.965.965v12.809a2.789,2.789,0,0,1,.855.893l1.075,1.792V200H288v1.93h2.895A.965.965,0,0,1,291.86,202.895Z" transform="translate(-203.139 -147.736)" fill="#2276bd"/>
      <path id="Path_16456" data-name="Path 16456" d="M324.277,337.568,322.187,336v5.79a.965.965,0,0,1-.965.965h-.965a.965.965,0,0,1-.827-.468l-1.9-3.171a.874.874,0,0,0-1.548.8l1.521,3.423v0l.295.663a11.015,11.015,0,0,0,3.961,4.7.965.965,0,0,1,.43.8v3.86h5.688l-.846-8.463Z" transform="translate(-227.677 -267.332)" fill="#2276bd"/>
      <path id="Path_16457" data-name="Path 16457" d="M192,155.862a4.814,4.814,0,0,1,5.79,0v-2.1A2.909,2.909,0,0,1,196.025,152h-1.683A2.81,2.81,0,0,1,192,154.11Z" transform="translate(-118.718 -105.526)" fill="#2276bd"/>
      <path id="Path_16458" data-name="Path 16458" d="M100.438,47.8l2.09,1.568v-5.79a.965.965,0,0,1,.965-.965h.965a.965.965,0,0,1,.827.468l1.9,3.171a.874.874,0,0,0,1.548-.8l-1.818-4.088a11.015,11.015,0,0,0-3.961-4.7.965.965,0,0,1-.429-.8V32H96.84l.846,8.463Z" transform="translate(-35.036)" fill="#2276bd"/>
      <circle id="Ellipse_1328" data-name="Ellipse 1328" cx="3.113" cy="3.113" r="3.113" transform="translate(73.185 51.173)" fill="#2276bd"/>
      <path id="Path_16459" data-name="Path 16459" d="M192,250.076a2.909,2.909,0,0,1,1.764,1.764h2.261a2.909,2.909,0,0,1,1.764-1.764v-2.1a4.814,4.814,0,0,1-5.79,0Z" transform="translate(-118.718 -189.927)" fill="#2276bd"/>
      <path id="Path_16460" data-name="Path 16460" d="M329.34,120.707a.965.965,0,0,0-1.163-.713l-.848.2a23.175,23.175,0,0,0-14.03-28.7.965.965,0,1,0-.671,1.809A21.256,21.256,0,0,1,325.645,119.1l-.177-.606a.965.965,0,0,0-1.853.54l.844,2.895a.964.964,0,0,0,1.152.668l3.015-.724A.965.965,0,0,0,329.34,120.707Z" transform="translate(-224.243 -52.265)" fill="#2276bd"/>
      <path id="Path_16461" data-name="Path 16461" d="M87.462,214.838a21.243,21.243,0,0,1-26.525-27.178l.236.567a.965.965,0,1,0,1.782-.742l-1.206-2.895a.965.965,0,0,0-1.293-.506l-2.895,1.327a.965.965,0,1,0,.8,1.754l.834-.382a23.175,23.175,0,0,0,28.85,29.894.965.965,0,1,0-.587-1.838Z" transform="translate(0 -133.662)" fill="#2276bd"/>
    </g>
  </g>
</svg>
