<svg xmlns="http://www.w3.org/2000/svg" width="85" height="85" viewBox="0 0 85 85">
  <g id="Group_9886" data-name="Group 9886" transform="translate(-459 -1970)">
    <g id="Ellipse_1327" data-name="Ellipse 1327" transform="translate(459 1970)" fill="#fff" stroke="#2276bd" stroke-linejoin="bevel" stroke-width="2">
      <circle cx="42.5" cy="42.5" r="42.5" stroke="none"/>
      <circle cx="42.5" cy="42.5" r="41.5" fill="none"/>
    </g>
    <g id="benefit" transform="translate(473.971 1985)">
      <path id="Path_16443" data-name="Path 16443" d="M149.554,14.246a14.246,14.246,0,1,0-14.246,14.246A14.262,14.262,0,0,0,149.554,14.246Zm-20.28,8.366,1.144-6.666-4.843-4.719,6.692-.975,2.994-6.063,2.993,6.063,6.695.974L140.1,15.947l1.144,6.666-5.987-3.147Z" transform="translate(-108.261)" fill="#2276bd"/>
      <path id="Path_16444" data-name="Path 16444" d="M232.064,109.266l-.89-1.805-.892,1.805-1.993.289,1.442,1.405-.34,1.985,1.782-.937,1.782.937-.34-1.985,1.441-1.4Z" transform="translate(-204.172 -96.121)" fill="#2276bd"/>
      <path id="Path_16445" data-name="Path 16445" d="M25.356,163.215V150.33a7.939,7.939,0,0,0-2.378-5.661l-4.409-4.284a6.4,6.4,0,0,0-9.055,0l7.935,7.935-2.238,2.238-8.85-8.85V128.391a6.332,6.332,0,0,0-6.332-6.332v19.5a7.857,7.857,0,0,0,1.461,4.551L8.658,156.3A4.632,4.632,0,0,1,9.526,159v4.211Z" transform="translate(0 -109.178)" fill="#2276bd"/>
      <path id="Path_16446" data-name="Path 16446" d="M287.858,159a4.634,4.634,0,0,1,.869-2.708l7.168-10.184a7.857,7.857,0,0,0,1.461-4.551v-19.5a6.331,6.331,0,0,0-6.332,6.332v13.319l-8.85,8.85-2.238-2.238,7.935-7.935a6.4,6.4,0,0,0-9.055,0l-4.409,4.284a7.939,7.939,0,0,0-2.377,5.661v12.884h15.829Z" transform="translate(-243.297 -109.178)" fill="#2276bd"/>
    </g>
  </g>
</svg>
